<svg height="926" viewBox="0 0 428 926" width="428" xmlns="http://www.w3.org/2000/svg" xmlns:xlink="http://www.w3.org/1999/xlink"><clipPath id="a"><path d="m0 0h428v926h-428z"/></clipPath><g clip-path="url(#a)" fill="none" stroke="#fafafa"><path d="m-20.1 68.1c-8.2-7.3-9.9-33.8 49.6-80.5 22.5-17.7 30.3-29.5 28.7-59.7-1.2-23.8 74.5-44.8 163.3 28.2 36 29.7 47.8 102.8-9 143.3-98.6 70.4-161.6 94.2-193.8 48.6-13-18.5-1.2-39.5-11.3-60.4-3.2-6.4-15.2-8.4-27.5-19.5z"/><path d="m-8.3 65.8c-7.5-6.7-9-30.7 45.1-73.1 20.6-16.1 27.7-26.8 26.2-54.2-1.1-21.7 67.8-40.7 148.7 25.6 32.7 27 43.5 93.3-8.3 130.2-89.7 63.9-147.1 85.5-176.3 44-11.9-16.8-1.1-35.8-10.4-54.8-2.8-5.8-13.8-7.7-25-17.7z"/><path d="m10.3 61.8c-6.4-5.7-7.7-26.1 38.2-62.1 17.4-13.7 23.5-22.7 22.2-46-1-18.3 57.5-34.5 126 21.7 27.8 22.9 36.9 79.2-7 110.5-76 54.2-124.7 72.5-149.5 37.4-10-14.3-.9-30.4-8.7-46.6-2.4-4.9-11.7-6.5-21.2-14.9z"/><path d="m-36.2 71.4c-9.2-8.2-11.1-37.5 55.5-89.3 25.3-19.7 34.1-32.7 32.3-66.3-1.5-26.4 83.3-49.7 182.9 31.3 40.2 33 53.5 114-10.2 159-110.4 78.1-181 104.4-217 53.8-14.6-20.5-1.3-43.7-12.7-66.9-3.5-7.2-17-9.4-30.8-21.6z"/><path d="m-52.3 75.3c-10.2-9.2-12.3-42 61.7-100 28.1-22 37.8-36.6 35.8-74.1-1.6-29.6 92.6-55.7 203.2 35 44.7 36.9 59.4 127.6-11.3 178-122.7 87.4-201.1 116.9-241.1 60.3-16.2-23-1.5-49-14.1-75-3.9-8-18.8-10.5-34.2-24.2z"/><path d="m-66.4 78.3c-11.1-9.9-13.3-45.4 66.7-108.1 30.4-23.9 40.9-39.7 38.7-80.3-1.7-32 100.2-60.2 219.8 37.9 48.4 39.9 64.3 138.1-12.2 192.6-132.7 94.5-217.5 126.5-260.7 65.2-17.6-24.9-1.6-53-15.3-81.1-4.2-8.7-20.4-11.4-37-26.2z"/></g></svg>