<svg height="926" viewBox="0 0 428 926" width="428" xmlns="http://www.w3.org/2000/svg" xmlns:xlink="http://www.w3.org/1999/xlink"><clipPath id="a"><path d="m0 0h428v926h-428z"/></clipPath><linearGradient id="b" gradientUnits="userSpaceOnUse" x1="213" x2="213" y1="512" y2="926"><stop offset="0" stop-color="#fff" stop-opacity="0"/><stop offset="1" stop-color="#fff"/></linearGradient><linearGradient id="c" gradientUnits="userSpaceOnUse" x1="312.7" x2="301.9" y1="372.5" y2="483.5"><stop offset="0" stop-color="#ffcd62"/><stop offset="1" stop-color="#fea12f"/></linearGradient><linearGradient id="d"><stop offset="0" stop-color="#eb5757"/><stop offset="1" stop-color="#fdb2b2"/></linearGradient><linearGradient id="e" gradientUnits="userSpaceOnUse" x1="75.9" x2="138.2" xlink:href="#d" y1="379.5" y2="487.9"/><linearGradient id="f" gradientUnits="userSpaceOnUse" x1="184.3" x2="246.5" xlink:href="#d" y1="650.6" y2="758.3"/><clipPath id="g"><path d="m427.97 145.03v1240.65h-427.97v-1338.34c1.4-12.17 6.7-23.47 15.04-32.09 9.31-9.36 21.61-14.79 34.53-15.25h200.73c4.68.09 22.92.96 36.84 15.55 4.46 4.66 10.5 12.62 12.66 23.22 2.27 11.14-1.74 14.35 1 29.7 1.23 6.72 3.64 13.15 7.11 18.96 2.43 3.53 5.33 6.69 8.6 9.38 8.95 7.39 18.89 9.38 26.14 10.5 31.4 4.8 38.79-3.94 57.59 4 11.61 4.91 17.33 11.83 19.04 14.03 4.37 5.74 7.35 12.5 8.69 19.69z"/></clipPath><clipPath id="h"><path d="m0 0h428v926h-428z"/></clipPath><clipPath id="i"><path d="m427.97 145.03v1240.65h-427.97v-1338.34c1.4-12.17 6.7-23.47 15.04-32.09 9.31-9.36 21.61-14.79 34.53-15.25h200.73c4.68.09 22.92.96 36.84 15.55 4.46 4.66 10.5 12.62 12.66 23.22 2.27 11.14-1.74 14.35 1 29.7 1.23 6.72 3.64 13.15 7.11 18.96 2.43 3.53 5.33 6.69 8.6 9.38 8.95 7.39 18.89 9.38 26.14 10.5 31.4 4.8 38.79-3.94 57.59 4 11.61 4.91 17.33 11.83 19.04 14.03 4.37 5.74 7.35 12.5 8.69 19.69z"/></clipPath><g clip-path="url(#a)"><path d="m44.1 720.7c-129.5 0-234.1-123-234.1-275.2 0-152.1 104.6-275.1 234.1-275.1 129.4 0 234 123 234 275.1 0 152.2-104.6 275.2-234 275.2z" fill="#ea94d7"/><path d="m219.1 977c-148.9 0-269.3-141.5-269.3-316.6s120.4-316.6 269.3-316.6c149 0 269.4 141.5 269.4 316.6s-120.4 316.6-269.4 316.6z" fill="#ffdada"/><path d="m269.3 561c-148.9 0-269.3-141.5-269.3-316.6s120.4-316.6 269.3-316.6c149 0 269.4 141.5 269.4 316.6s-120.4 316.6-269.4 316.6z" fill="#ddcdff"/><g fill="none"><path d="m-1 0h428v1386h-428z"/><path d="m-20.1 330.9c-8.2-5.2-9.9-24 49.6-57.2 22.5-12.6 30.3-20.9 28.7-42.4-1.2-17 74.5-31.9 163.3 20 36 21.2 47.8 73.1-9 101.9-98.6 50-161.6 66.9-193.8 34.5-13-13.2-1.2-28-11.3-42.9-3.2-4.6-15.2-6-27.5-13.9z" stroke="#fafafa"/><path d="m-8.3 329.3c-7.5-4.8-9-21.8 45.1-52 20.6-11.4 27.7-19 26.2-38.5-1.1-15.4 67.8-28.9 148.7 18.2 32.7 19.2 43.5 66.3-8.3 92.5-89.7 45.5-147.1 60.8-176.3 31.4-11.9-12-1.1-25.5-10.4-39-2.8-4.2-13.8-5.5-25-12.6z" stroke="#fafafa"/><path d="m10.3 326.4c-6.4-4-7.7-18.5 38.2-44.1 17.4-9.7 23.5-16.1 22.2-32.7-1-13 57.5-24.5 126 15.5 27.8 16.2 36.9 56.2-7 78.5-76 38.5-124.7 51.5-149.5 26.5-10-10.1-.9-21.6-8.7-33-2.4-3.6-11.7-4.7-21.2-10.7z" stroke="#fafafa"/><path d="m-36.2 333.3c-9.2-5.9-11.1-26.7 55.5-63.5 25.3-14 34.1-23.3 32.3-47.1-1.5-18.8 83.3-35.3 182.9 22.2 40.2 23.5 53.5 81.1-10.2 113-110.4 55.5-181 74.3-217 38.3-14.6-14.6-1.3-31.1-12.7-47.6-3.5-5.1-17-6.7-30.8-15.3z" stroke="#fafafa"/><path d="m-52.3 336.1c-10.2-6.6-12.3-29.9 61.7-71.1 28.1-15.7 37.8-26.1 35.8-52.7-1.6-21.1 92.6-39.6 203.2 24.8 44.7 26.3 59.4 90.8-11.3 126.6-122.7 62.1-201.1 83.1-241.1 42.8-16.2-16.3-1.5-34.8-14.1-53.3-3.9-5.6-18.8-7.4-34.2-17.1z" stroke="#fafafa"/><path d="m-66.4 338.2c-11.1-7.1-13.3-32.3 66.7-76.9 30.4-17 40.9-28.2 38.7-57-1.7-22.8 100.2-42.8 219.8 26.9 48.4 28.4 64.3 98.1-12.2 136.9-132.7 67.2-217.5 89.9-260.7 46.3-17.6-17.6-1.6-37.6-15.3-57.6-4.2-6.2-20.4-8.1-37-18.6z" stroke="#fafafa"/></g><path d="m-1 512h428v414h-428z" fill="url(#b)"/><path d="m284.5 468.9c-22.1-18.5-25-51.3-6.5-73.4s51.3-24.9 73.4-6.4 25 51.3 6.5 73.4-51.4 24.9-73.4 6.4z" fill="url(#c)"/><path d="m58.2 344.4c1.7-4.1 6.3-6.1 10.4-4.5l130.5 51.3c4.1 1.7 6.1 6.3 4.5 10.4l-51.3 130.5c-1.6 4.1-6.3 6.1-10.4 4.5l-130.5-51.3c-4.1-1.6-6.1-6.3-4.5-10.4z" fill="none"/><path d="m74.5 383.2c.8-2 3.1-3 5.1-2.2l83.5 32.8c2 .8 3 3.1 2.2 5.2l-25.6 65.2c-.8 2.1-3.2 3.1-5.2 2.3l-83.4-32.8c-2.1-.8-3.1-3.2-2.3-5.2z" fill="url(#e)"/><path d="m85.6 414.8c-3.7-1.5-5.6-5.7-4.1-9.5 1.5-3.7 5.7-5.6 9.5-4.1s5.6 5.7 4.1 9.5c-1.4 3.8-5.7 5.6-9.5 4.1z" fill="#fff"/><path d="m52.8 464.9 39.3-26.6 10.7 46.2z" fill="#fdb2b2" opacity=".4"/><path d="m71 472 49.7-32.9 13.9 57.9z" fill="#fdb2b2" opacity=".4"/><path d="m183.4 653.4c.5-1.5 2.2-2.4 3.8-2l81.2 24.8c1.6.5 2.5 2.2 2 3.8l-23 75.4c-.5 1.6-2.2 2.5-3.8 2l-81.2-24.8c-1.6-.5-2.5-2.1-2-3.7z" fill="url(#f)"/><path d="m236.2 719.2c-3.2-3.4-1.5-9 3.1-10l40.9-9.5c4.6-1 8.5 3.2 7.2 7.7l-12.3 40.2c-1.3 4.4-7 5.8-10.2 2.3z" fill="#fdb2b2" opacity=".4"/><path d="m195.7 685.8c-4.8-1.5-7.5-6.6-6-11.4s6.5-7.5 11.3-6c4.9 1.4 7.6 6.5 6.1 11.3s-6.6 7.5-11.4 6.1z" fill="#fff"/><g clip-path="url(#g)"><path d="m0 1008.1v-1008.1h586.6v1008.1z" fill="#fff" opacity=".4"/></g></g><g clip-path="url(#h)"><path d="m44.1 720.7c-129.5 0-234.1-123-234.1-275.2 0-152.1 104.6-275.1 234.1-275.1 129.4 0 234 123 234 275.1 0 152.2-104.6 275.2-234 275.2z" fill="#ea94d7"/><path d="m219.1 977c-148.9 0-269.3-141.5-269.3-316.6s120.4-316.6 269.3-316.6c149 0 269.4 141.5 269.4 316.6s-120.4 316.6-269.4 316.6z" fill="#ffdada"/><path d="m269.3 561c-148.9 0-269.3-141.5-269.3-316.6s120.4-316.6 269.3-316.6c149 0 269.4 141.5 269.4 316.6s-120.4 316.6-269.4 316.6z" fill="#ddcdff"/><g fill="none"><path d="m-1 0h428v1386h-428z"/><path d="m-20.1 330.9c-8.2-5.2-9.9-24 49.6-57.2 22.5-12.6 30.3-20.9 28.7-42.4-1.2-17 74.5-31.9 163.3 20 36 21.2 47.8 73.1-9 101.9-98.6 50-161.6 66.9-193.8 34.5-13-13.2-1.2-28-11.3-42.9-3.2-4.6-15.2-6-27.5-13.9z" stroke="#fafafa"/><path d="m-8.3 329.3c-7.5-4.8-9-21.8 45.1-52 20.6-11.4 27.7-19 26.2-38.5-1.1-15.4 67.8-28.9 148.7 18.2 32.7 19.2 43.5 66.3-8.3 92.5-89.7 45.5-147.1 60.8-176.3 31.4-11.9-12-1.1-25.5-10.4-39-2.8-4.2-13.8-5.5-25-12.6z" stroke="#fafafa"/><path d="m10.3 326.4c-6.4-4-7.7-18.5 38.2-44.1 17.4-9.7 23.5-16.1 22.2-32.7-1-13 57.5-24.5 126 15.5 27.8 16.2 36.9 56.2-7 78.5-76 38.5-124.7 51.5-149.5 26.5-10-10.1-.9-21.6-8.7-33-2.4-3.6-11.7-4.7-21.2-10.7z" stroke="#fafafa"/><path d="m-36.2 333.3c-9.2-5.9-11.1-26.7 55.5-63.5 25.3-14 34.1-23.3 32.3-47.1-1.5-18.8 83.3-35.3 182.9 22.2 40.2 23.5 53.5 81.1-10.2 113-110.4 55.5-181 74.3-217 38.3-14.6-14.6-1.3-31.1-12.7-47.6-3.5-5.1-17-6.7-30.8-15.3z" stroke="#fafafa"/><path d="m-52.3 336.1c-10.2-6.6-12.3-29.9 61.7-71.1 28.1-15.7 37.8-26.1 35.8-52.7-1.6-21.1 92.6-39.6 203.2 24.8 44.7 26.3 59.4 90.8-11.3 126.6-122.7 62.1-201.1 83.1-241.1 42.8-16.2-16.3-1.5-34.8-14.1-53.3-3.9-5.6-18.8-7.4-34.2-17.1z" stroke="#fafafa"/><path d="m-66.4 338.2c-11.1-7.1-13.3-32.3 66.7-76.9 30.4-17 40.9-28.2 38.7-57-1.7-22.8 100.2-42.8 219.8 26.9 48.4 28.4 64.3 98.1-12.2 136.9-132.7 67.2-217.5 89.9-260.7 46.3-17.6-17.6-1.6-37.6-15.3-57.6-4.2-6.2-20.4-8.1-37-18.6z" stroke="#fafafa"/></g><path d="m-1 512h428v414h-428z" fill="url(#b)"/><path d="m284.5 468.9c-22.1-18.5-25-51.3-6.5-73.4s51.3-24.9 73.4-6.4 25 51.3 6.5 73.4-51.4 24.9-73.4 6.4z" fill="url(#c)"/><path d="m58.2 344.4c1.7-4.1 6.3-6.1 10.4-4.5l130.5 51.3c4.1 1.7 6.1 6.3 4.5 10.4l-51.3 130.5c-1.6 4.1-6.3 6.1-10.4 4.5l-130.5-51.3c-4.1-1.6-6.1-6.3-4.5-10.4z" fill="none"/><path d="m74.5 383.2c.8-2 3.1-3 5.1-2.2l83.5 32.8c2 .8 3 3.1 2.2 5.2l-25.6 65.2c-.8 2.1-3.2 3.1-5.2 2.3l-83.4-32.8c-2.1-.8-3.1-3.2-2.3-5.2z" fill="url(#e)"/><path d="m85.6 414.8c-3.7-1.5-5.6-5.7-4.1-9.5 1.5-3.7 5.7-5.6 9.5-4.1s5.6 5.7 4.1 9.5c-1.4 3.8-5.7 5.6-9.5 4.1z" fill="#fff"/><path d="m52.8 464.9 39.3-26.6 10.7 46.2z" fill="#fdb2b2" opacity=".4"/><path d="m71 472 49.7-32.9 13.9 57.9z" fill="#fdb2b2" opacity=".4"/><path d="m183.4 653.4c.5-1.5 2.2-2.4 3.8-2l81.2 24.8c1.6.5 2.5 2.2 2 3.8l-23 75.4c-.5 1.6-2.2 2.5-3.8 2l-81.2-24.8c-1.6-.5-2.5-2.1-2-3.7z" fill="url(#f)"/><path d="m236.2 719.2c-3.2-3.4-1.5-9 3.1-10l40.9-9.5c4.6-1 8.5 3.2 7.2 7.7l-12.3 40.2c-1.3 4.4-7 5.8-10.2 2.3z" fill="#fdb2b2" opacity=".4"/><path d="m195.7 685.8c-4.8-1.5-7.5-6.6-6-11.4s6.5-7.5 11.3-6c4.9 1.4 7.6 6.5 6.1 11.3s-6.6 7.5-11.4 6.1z" fill="#fff"/><g clip-path="url(#i)"><path d="m0 1008.1v-1008.1h586.6v1008.1z" fill="#fff" opacity=".4"/></g></g></svg>