<svg height="926" viewBox="0 0 428 926" width="428" xmlns="http://www.w3.org/2000/svg" xmlns:xlink="http://www.w3.org/1999/xlink"><clipPath id="a"><path d="m0 0h428v926h-428z"/></clipPath><linearGradient id="b" gradientUnits="userSpaceOnUse" x1="213" x2="213" y1="512" y2="926"><stop offset="0" stop-color="#fff" stop-opacity="0"/><stop offset="1" stop-color="#fff"/></linearGradient><linearGradient id="c" gradientUnits="userSpaceOnUse" x1="312.7" x2="301.9" y1="372.5" y2="483.5"><stop offset="0" stop-color="#ffcd62"/><stop offset="1" stop-color="#fea12f"/></linearGradient><linearGradient id="d"><stop offset="0" stop-color="#eb5757"/><stop offset="1" stop-color="#fdb2b2"/></linearGradient><linearGradient id="e" gradientUnits="userSpaceOnUse" x1="75.9" x2="138.2" xlink:href="#d" y1="379.5" y2="487.9"/><linearGradient id="f" gradientUnits="userSpaceOnUse" x1="184.3" x2="246.5" xlink:href="#d" y1="650.6" y2="758.3"/><g clip-path="url(#a)"><path d="m37.2 652.4c-129.4 0-234.1-132.6-234.1-296.8s104.7-296.8 234.1-296.8 234.1 132.6 234.1 296.8-104.7 296.8-234.1 296.8z" fill="#ea94d7"/><path d="m219.1 977c-148.9 0-269.3-152.7-269.3-341.6s120.4-341.5 269.3-341.5c149 0 269.4 152.6 269.4 341.5s-120.4 341.6-269.4 341.6z" fill="#ffdada"/><path d="m348.7 606.1c-149 0-269.4-152.6-269.4-341.5s120.4-341.6 269.4-341.6c148.9 0 269.3 152.7 269.3 341.6s-120.4 341.5-269.3 341.5z" fill="#ddcdff"/><path d="m-1 512h428v414h-428z" fill="url(#b)"/><path d="m284.5 468.9c-22.1-18.5-25-51.3-6.5-73.4s51.3-24.9 73.4-6.4 25 51.3 6.5 73.4-51.4 24.9-73.4 6.4z" fill="url(#c)"/><path d="m58.2 344.4c1.7-4.1 6.3-6.1 10.4-4.5l130.5 51.3c4.1 1.7 6.1 6.3 4.5 10.4l-51.3 130.5c-1.6 4.1-6.3 6.1-10.4 4.5l-130.5-51.3c-4.1-1.6-6.1-6.3-4.5-10.4z" fill="none"/><path d="m74.5 383.2c.8-2 3.1-3 5.1-2.2l83.5 32.8c2 .8 3 3.1 2.2 5.2l-25.6 65.2c-.8 2.1-3.2 3.1-5.2 2.3l-83.4-32.8c-2.1-.8-3.1-3.2-2.3-5.2z" fill="url(#e)"/><path d="m85.6 414.8c-3.7-1.5-5.6-5.7-4.1-9.5 1.5-3.7 5.7-5.6 9.5-4.1s5.6 5.7 4.1 9.5c-1.4 3.8-5.7 5.6-9.5 4.1z" fill="#fff"/><path d="m52.8 464.9 39.3-26.6 10.7 46.2z" fill="#fdb2b2" opacity=".4"/><path d="m71 472 49.7-32.9 13.9 57.9z" fill="#fdb2b2" opacity=".4"/><path d="m157.3 593.7c1.3-4.3 5.8-6.7 10-5.4l170.2 52c4.3 1.3 6.6 5.8 5.3 10l-51.9 170.2c-1.3 4.3-5.8 6.6-10 5.3l-170.2-51.9c-4.3-1.3-6.7-5.8-5.4-10z" fill="none"/><path d="m183.4 653.4c.5-1.5 2.2-2.4 3.8-2l81.2 24.8c1.6.5 2.5 2.2 2 3.8l-23 75.4c-.5 1.6-2.2 2.5-3.8 2l-81.2-24.8c-1.6-.5-2.5-2.1-2-3.7z" fill="url(#f)"/><path d="m236.2 719.2c-3.2-3.4-1.5-9 3.1-10l40.9-9.5c4.6-1 8.5 3.2 7.2 7.7l-12.3 40.2c-1.3 4.4-7 5.8-10.2 2.3z" fill="#fdb2b2" opacity=".4"/><path d="m195.7 685.8c-4.8-1.5-7.5-6.6-6-11.4s6.5-7.5 11.3-6c4.9 1.4 7.6 6.5 6.1 11.3s-6.6 7.5-11.4 6.1z" fill="#fff"/></g></svg>